<?xml version="1.0" standalone="no"?>
<!DOCTYPE svg PUBLIC "-//W3C//DTD SVG 20010904//EN"
 "http://www.w3.org/TR/2001/REC-SVG-20010904/DTD/svg10.dtd">
<svg version="1.0" xmlns="http://www.w3.org/2000/svg"
 width="236.000000pt" height="238.000000pt" viewBox="0 0 236.000000 238.000000"
 preserveAspectRatio="xMidYMid meet">

<g transform="translate(0.000000,238.000000) scale(0.100000,-0.100000)"
fill="#000000" stroke="none">
<path d="M0 1190 l0 -1190 1180 0 1180 0 0 1190 0 1190 -1180 0 -1180 0 0
-1190z m1495 741 c132 -8 152 -15 190 -64 55 -73 42 -142 -41 -214 l-54 -46
39 -17 c78 -36 201 -112 241 -151 23 -23 56 -71 73 -107 30 -62 32 -75 32
-172 0 -96 -2 -110 -29 -159 -34 -66 -121 -159 -187 -202 -42 -26 -62 -32
-139 -38 -74 -7 -92 -12 -107 -30 -23 -28 -120 -45 -188 -32 -76 14 -84 28
-100 182 -19 177 -52 634 -61 832 -9 225 0 242 136 231 41 -3 129 -9 195 -13z
m-834 -20 c16 -16 29 -37 29 -46 0 -15 6 -16 48 -9 85 16 203 11 245 -10 60
-30 82 -69 82 -146 -1 -127 -92 -244 -251 -321 -75 -36 -84 -44 -90 -73 -3
-18 -9 -154 -12 -302 l-7 -268 -34 -23 c-64 -43 -198 -18 -221 41 -10 26 6
895 19 1028 12 124 37 156 124 157 30 1 45 -6 68 -28z m1195 -1479 c13 -9 37
-52 32 -58 -2 -2 -293 -5 -647 -7 -521 -2 -644 0 -653 10 -6 8 -8 16 -5 19 23
23 1241 57 1273 36z"/>
<path d="M1436 1841 c-7 -11 10 -140 19 -150 4 -3 18 7 31 22 31 37 34 111 5
127 -24 12 -48 13 -55 1z"/>
<path d="M1470 1483 c0 -97 52 -588 63 -599 12 -12 102 95 130 154 27 58 31
78 32 152 0 73 -4 93 -28 142 -29 59 -120 159 -169 184 l-28 15 0 -48z"/>
<path d="M770 1779 c-24 -11 -48 -25 -52 -32 -4 -7 -8 -72 -8 -144 0 -104 3
-133 13 -133 22 0 95 69 121 113 37 63 40 163 6 197 -24 24 -24 24 -80 -1z"/>
</g>
</svg>
