<svg version="1.0" xmlns="http://www.w3.org/2000/svg" width="314.6666667" height="317.3333333" viewBox="0 0 236 238"><path d="M0 119v119h236V0H0v119zm149.5-74.1c13.2.8 15.2 1.5 19 6.4 5.5 7.3 4.2 14.2-4.1 21.4l-5.4 4.6 3.9 1.7c7.8 3.6 20.1 11.2 24.1 15.1 2.3 2.3 5.6 7.1 7.3 10.7 3 6.2 3.2 7.5 3.2 17.2 0 9.6-.2 11-2.9 15.9-3.4 6.6-12.1 15.9-18.7 20.2-4.2 2.6-6.2 3.2-13.9 3.8-7.4.7-9.2 1.2-10.7 3-2.3 2.8-12 4.5-18.8 3.2-7.6-1.4-8.4-2.8-10-18.2-1.9-17.7-5.2-63.4-6.1-83.2-.9-22.5 0-24.2 13.6-23.1 4.1.3 12.9.9 19.5 1.3zm-83.4 2c1.6 1.6 2.9 3.7 2.9 4.6 0 1.5.6 1.6 4.8.9 8.5-1.6 20.3-1.1 24.5 1 6 3 8.2 6.9 8.2 14.6-.1 12.7-9.2 24.4-25.1 32.1-7.5 3.6-8.4 4.4-9 7.3-.3 1.8-.9 15.4-1.2 30.2l-.7 26.8-3.4 2.3c-6.4 4.3-19.8 1.8-22.1-4.1-1-2.6.6-89.5 1.9-102.8 1.2-12.4 3.7-15.6 12.4-15.7 3-.1 4.5.6 6.8 2.8zm119.5 147.9c1.3.9 3.7 5.2 3.2 5.8-.2.2-29.3.5-64.7.7-52.1.2-64.4 0-65.3-1-.6-.8-.8-1.6-.5-1.9 2.3-2.3 124.1-5.7 127.3-3.6z"/><path d="M143.6 53.9c-.7 1.1 1 14 1.9 15 .4.3 1.8-.7 3.1-2.2 3.1-3.7 3.4-11.1.5-12.7-2.4-1.2-4.8-1.3-5.5-.1zM147 89.7c0 9.7 5.2 58.8 6.3 59.9 1.2 1.2 10.2-9.5 13-15.4 2.7-5.8 3.1-7.8 3.2-15.2 0-7.3-.4-9.3-2.8-14.2-2.9-5.9-12-15.9-16.9-18.4l-2.8-1.5v4.8zM77 60.1c-2.4 1.1-4.8 2.5-5.2 3.2-.4.7-.8 7.2-.8 14.4 0 10.4.3 13.3 1.3 13.3 2.2 0 9.5-6.9 12.1-11.3 3.7-6.3 4-16.3.6-19.7-2.4-2.4-2.4-2.4-8 .1z"/></svg>